<svg id="Layer_1" data-name="Layer 1" xmlns="http://www.w3.org/2000/svg" xmlns:xlink="http://www.w3.org/1999/xlink" viewBox="0 0 279 48"><defs><style>.cls-1{fill:none;}.cls-2{clip-path:url(#clip-path);}.cls-3{fill:#fff;}</style><clipPath id="clip-path"><rect class="cls-1" x="1" y="1" width="277" height="46"/></clipPath></defs><g id="XGP_2020_White" data-name="XGP 2020 White"><g class="cls-2"><g class="cls-2"><path class="cls-3" d="M24.61,19.45a.19.19,0,0,1,.08,0c7.06,5.24,19.15,18.18,15.46,21.83a24.07,24.07,0,0,1-31.08,0c-3.69-3.65,8.4-16.59,15.46-21.83l.08,0M36.91,4.37a24.13,24.13,0,0,0-24.6,0,.08.08,0,0,0,0,.11.1.1,0,0,0,.12,0C17,3.56,23.9,7.4,24.56,7.79l.05,0,.05,0c.66-.39,7.6-4.23,12.18-3.27a.09.09,0,0,0,.11,0,.08.08,0,0,0,0-.11M8.08,7.6a.39.39,0,0,0-.1.08A22.54,22.54,0,0,0,5.83,37.93s.08.07.12,0a.09.09,0,0,0,0-.12c-1.8-5.42,7.4-18.56,12.16-24.07a.15.15,0,0,0,0-.07.1.1,0,0,0,0-.07c-7.2-7-9.65-6.24-10-6m23,6s-.05,0-.05.07a.1.1,0,0,0,0,.07c4.75,5.51,14,18.65,12.15,24.07,0,0,0,.1,0,.12s.1,0,.13,0A22.56,22.56,0,0,0,41.24,7.68a.39.39,0,0,0-.1-.08c-.4-.2-2.84-.94-10,6M105,10.52h-4.91L89,38.17h4.5L96.25,31h12.58l2.75,7.16h4.5Zm-7.36,16.8,4.9-12.65,4.91,12.65Zm-10.9-3.71V38.17H82.66V34.55a10.17,10.17,0,0,1-3.85,3.16,12.71,12.71,0,0,1-5.35,1.08,14.58,14.58,0,0,1-5.51-1,11.93,11.93,0,0,1-4.26-3,13.16,13.16,0,0,1-2.78-4.6A17.6,17.6,0,0,1,60,24.34a17.5,17.5,0,0,1,.93-5.89,12.87,12.87,0,0,1,2.81-4.59,12.1,12.1,0,0,1,4.35-3,15.13,15.13,0,0,1,5.62-1,13.81,13.81,0,0,1,8.65,2.64,10.86,10.86,0,0,1,4.07,7.11v.05H82v0a7.11,7.11,0,0,0-2.83-4.39,9,9,0,0,0-5.4-1.62A8.44,8.44,0,0,0,67,16.55a11.33,11.33,0,0,0-2.54,7.79A11.35,11.35,0,0,0,67,32.14,8.67,8.67,0,0,0,73.82,35,9.06,9.06,0,0,0,80,32.79a7.48,7.48,0,0,0,2.65-5.58H74.34v-3.6Zm69.42-9.29v8h14.1v3.53h-14.1v8.51H172.1v3.8H151.82V10.52H172.1v3.8Zm-8.68-3.8V38.17h-4.17V16.23c-.54,1.54-1.26,3.45-2.15,5.69l-6.41,16.25h-3.63v0l-6.48-16.22c-.77-2-1.48-3.89-2.11-5.61V38.17h-4.17V10.52h6l5.81,14.7c1.17,3,2.13,5.56,2.87,7.67.86-2.51,1.83-5.22,2.9-8.06l5.61-14.31Zm54.71,2.35A10.26,10.26,0,0,0,195,10.52H182.92V38.17h4.34V28H195a10.27,10.27,0,0,0,7.18-2.36,8.24,8.24,0,0,0,2.56-6.36,8.32,8.32,0,0,0-2.56-6.4m-14.93,1.37h7.67a5.64,5.64,0,0,1,4,1.31,4.86,4.86,0,0,1,1.38,3.72A4.82,4.82,0,0,1,199,23a5.72,5.72,0,0,1-4,1.28h-7.67ZM252.75,30.5a7.21,7.21,0,0,1-2.93,6.07c-1.95,1.47-4.68,2.22-8.12,2.22C238,38.79,235,38,233,36.3A8.85,8.85,0,0,1,229.78,29v0h4.33v0a5.76,5.76,0,0,0,2,4.61,9,9,0,0,0,5.7,1.54A8.38,8.38,0,0,0,246.59,34a3.9,3.9,0,0,0,1.67-3.39,3.2,3.2,0,0,0-1.38-2.78,14.48,14.48,0,0,0-5-1.75l-2.42-.51a14.08,14.08,0,0,1-6.62-2.79,6.78,6.78,0,0,1-2.24-5.38,6.55,6.55,0,0,1,2.72-5.47,12,12,0,0,1,7.34-2c3.7,0,6.53.79,8.39,2.33a8.14,8.14,0,0,1,2.9,6.42v0h-4.3v0a5.19,5.19,0,0,0-1.79-3.91c-1.06-.82-2.8-1.24-5.16-1.24a7.54,7.54,0,0,0-4.23,1A3.26,3.26,0,0,0,235,17.34a3.31,3.31,0,0,0,1.29,2.83,12.23,12.23,0,0,0,4.83,1.77l2.47.51c3.22.67,5.58,1.65,7,2.91a6.58,6.58,0,0,1,2.14,5.14m25.25,0a7.22,7.22,0,0,1-2.94,6.07c-1.94,1.47-4.67,2.22-8.11,2.22-3.73,0-6.67-.84-8.75-2.49A8.88,8.88,0,0,1,255,29v0h4.34v0a5.73,5.73,0,0,0,2,4.61,9,9,0,0,0,5.7,1.54,8.34,8.34,0,0,0,4.8-1.17,3.9,3.9,0,0,0,1.67-3.39,3.22,3.22,0,0,0-1.37-2.78,14.65,14.65,0,0,0-5-1.75l-2.43-.51a14.08,14.08,0,0,1-6.61-2.79,6.78,6.78,0,0,1-2.24-5.38,6.52,6.52,0,0,1,2.72-5.47,12,12,0,0,1,7.34-2c3.7,0,6.52.79,8.39,2.33a8.17,8.17,0,0,1,2.9,6.42v0h-4.3v0a5.22,5.22,0,0,0-1.79-3.91c-1.06-.82-2.8-1.24-5.17-1.24a7.5,7.5,0,0,0-4.22,1,3.25,3.25,0,0,0-1.46,2.84,3.32,3.32,0,0,0,1.3,2.83,12.17,12.17,0,0,0,4.83,1.77l2.46.51c3.23.67,5.58,1.65,7,2.91A6.58,6.58,0,0,1,278,30.5m-60.29-20h-4.9L201.72,38.17h4.51L209,31h12.58l2.74,7.16h4.5Zm-7.36,16.8,4.91-12.65,4.91,12.65Z"/></g></g></g></svg>