<?xml version="1.0" encoding="utf-8"?>
<!-- Generator: Adobe Illustrator 24.1.2, SVG Export Plug-In . SVG Version: 6.00 Build 0)  -->
<svg version="1.1" id="Layer_1" xmlns="http://www.w3.org/2000/svg" xmlns:xlink="http://www.w3.org/1999/xlink" x="0px" y="0px"
	 viewBox="0 0 162 53" style="enable-background:new 0 0 162 53;" xml:space="preserve">
<style type="text/css">
	.st0{fill:#FFFFFF;}
	.st1{fill:#77787B;}
	.st2{fill:#F25022;}
	.st3{fill:#7FBA00;}
	.st4{fill:#00A4EF;}
	.st5{fill:#FFB900;}
</style>
<rect x="0" y="0" class="st0" width="161.8" height="52.9"/>
<path class="st1" d="M67.4,16.2v20.6h-3.6V20.7h-0.1l-6.4,16.1H55l-6.5-16.1l0,0v16.1h-3.3V16.2h5.1l5.9,15.3h0.1l6.2-15.3H67.4z
	 M70.4,17.8c0-0.5,0.2-1.1,0.6-1.4c0.8-0.8,2.2-0.8,3,0c0.4,0.4,0.6,0.9,0.6,1.4c0,0.6-0.2,1.1-0.7,1.4c-0.4,0.4-0.9,0.6-1.5,0.6
	s-1.1-0.2-1.5-0.6C70.6,18.8,70.4,18.3,70.4,17.8L70.4,17.8z M74.2,22v14.8h-3.5V22H74.2z M84.8,34.3c0.6,0,1.2-0.1,1.7-0.4
	c0.6-0.2,1.2-0.5,1.7-0.9v3.2c-0.6,0.3-1.2,0.6-1.9,0.7c-0.8,0.2-1.5,0.2-2.3,0.2c-3.9,0.2-7.1-2.8-7.3-6.6c0-0.2,0-0.5,0-0.7
	c-0.1-2.2,0.7-4.3,2.1-5.9c1.5-1.6,3.7-2.4,5.9-2.3c0.7,0,1.3,0.1,2,0.2c0.5,0.1,1.1,0.3,1.6,0.6v3.3c-0.5-0.4-1.1-0.7-1.6-0.9
	c-0.5-0.2-1.1-0.3-1.7-0.3c-1.2,0-2.5,0.4-3.3,1.3c-0.9,1-1.3,2.3-1.3,3.6c-0.1,1.3,0.4,2.5,1.2,3.4C82.4,33.9,83.6,34.3,84.8,34.3z
	 M98.1,21.8c0.3,0,0.5,0,0.8,0.1c0.2,0,0.4,0.1,0.6,0.1v3.5c-0.2-0.2-0.5-0.3-0.8-0.4C98.2,25,97.8,25,97.3,25c-0.8,0-1.6,0.4-2.2,1
	c-0.7,1-1,2.1-0.9,3.3v7.4h-3.5V22h3.5v2.3h0.1c0.3-0.8,0.8-1.4,1.4-1.9C96.5,22,97.3,21.8,98.1,21.8z M99.6,29.6
	c-0.1-2.1,0.6-4.2,2.1-5.8c1.5-1.5,3.6-2.3,5.8-2.1c2-0.1,4,0.6,5.4,2.1s2.1,3.5,2,5.6c0.1,2.1-0.7,4.2-2.1,5.7
	c-1.5,1.5-3.5,2.2-5.6,2.1c-2,0.1-4-0.6-5.4-2C100.2,33.6,99.5,31.7,99.6,29.6z M103.2,29.5c-0.1,1.3,0.3,2.5,1,3.5
	c0.8,0.8,1.9,1.3,3,1.2c1.1,0.1,2.2-0.4,2.9-1.2c0.7-1.1,1.1-2.3,1-3.6c0.1-1.3-0.3-2.6-1-3.6c-0.7-0.8-1.8-1.3-2.9-1.2
	c-1.1-0.1-2.3,0.4-3,1.3C103.5,26.9,103.1,28.2,103.2,29.5z M119.9,25.9c0,0.4,0.2,0.9,0.5,1.2c0.6,0.5,1.3,0.8,2.1,1.1
	c1.1,0.4,2.1,1,2.9,1.9c0.6,0.7,0.9,1.6,0.8,2.5c0,1.3-0.5,2.6-1.6,3.3c-1.3,0.9-2.8,1.3-4.3,1.3c-0.7,0-1.3-0.1-2-0.2
	c-0.6-0.1-1.3-0.3-1.9-0.6V33c0.6,0.4,1.3,0.8,2,1c0.6,0.2,1.3,0.4,2,0.4c0.6,0,1.2-0.1,1.7-0.3c0.4-0.2,0.6-0.7,0.6-1.1
	c0-0.5-0.2-0.9-0.6-1.2c-0.7-0.5-1.4-0.9-2.2-1.1c-1-0.4-2-1-2.7-1.8c-0.6-0.7-0.8-1.6-0.8-2.5c0-1.3,0.6-2.5,1.6-3.2
	c1.2-0.9,2.6-1.4,4.1-1.3c0.6,0,1.2,0.1,1.7,0.2c0.6,0.1,1.1,0.2,1.6,0.5v3.3c-0.5-0.3-1-0.6-1.6-0.8c-0.6-0.2-1.2-0.3-1.8-0.3
	c-0.5,0-1.1,0.1-1.5,0.4C120.1,25.1,119.9,25.5,119.9,25.9z M127.8,29.6c-0.1-2.1,0.6-4.2,2.1-5.8c1.5-1.5,3.6-2.3,5.8-2.1
	c2-0.1,4,0.6,5.4,2.1s2.1,3.5,1.9,5.6c0.1,2.1-0.6,4.1-2.1,5.7c-1.5,1.5-3.5,2.2-5.6,2.1c-2,0.1-4-0.6-5.4-2
	C128.4,33.6,127.7,31.7,127.8,29.6z M131.4,29.5c-0.1,1.3,0.3,2.5,1,3.5c0.8,0.8,1.9,1.3,3,1.2c1.1,0.1,2.2-0.4,2.9-1.2
	c0.7-1.1,1.1-2.3,1-3.6c0.1-1.3-0.3-2.6-1-3.6c-0.7-0.8-1.8-1.3-2.9-1.2c-1.1-0.1-2.3,0.4-3,1.3C131.6,26.9,131.3,28.2,131.4,29.5z
	 M154.4,24.9h-5.2v11.9h-3.5V24.9h-2.5V22h2.5v-2c-0.1-1.4,0.5-2.8,1.5-3.8s2.4-1.5,3.9-1.5c0.4,0,0.7,0,1.1,0.1
	c0.3,0,0.6,0.1,0.9,0.2v3c-0.2-0.1-0.4-0.2-0.6-0.2c-0.3-0.1-0.7-0.2-1-0.1c-0.6,0-1.3,0.2-1.7,0.7c-0.4,0.6-0.6,1.3-0.6,2V22h5.2
	v-3.3l3.5-1.1V22h3.5v2.8h-3.5v6.9c-0.1,0.7,0.1,1.4,0.5,1.9c0.4,0.4,1,0.6,1.6,0.6c0.2,0,0.5-0.1,0.7-0.2c0.3-0.1,0.5-0.2,0.7-0.3
	v2.9c-0.3,0.2-0.7,0.3-1.1,0.3c-0.5,0.1-1,0.2-1.5,0.2c-1.2,0.1-2.4-0.3-3.3-1.1c-0.8-1-1.2-2.2-1.1-3.5L154.4,24.9z"/>
<rect x="0.6" y="9.4" class="st2" width="16.3" height="16.3"/>
<rect x="18.6" y="9.4" class="st3" width="16.3" height="16.3"/>
<rect x="0.6" y="27.4" class="st4" width="16.3" height="16.3"/>
<rect x="18.6" y="27.4" class="st5" width="16.3" height="16.3"/>
</svg>
