<?xml version="1.0" encoding="utf-8"?>
<!-- Generator: Adobe Illustrator 24.1.2, SVG Export Plug-In . SVG Version: 6.00 Build 0)  -->
<svg version="1.1" id="Layer_1" xmlns="http://www.w3.org/2000/svg" xmlns:xlink="http://www.w3.org/1999/xlink" x="0px" y="0px"
	 viewBox="0 0 162 53" style="enable-background:new 0 0 162 53;" xml:space="preserve">
<style type="text/css">
	.st0{fill:#FFFFFF;}
</style>
<rect x="0.2" y="-0.1" class="st0" width="161.6" height="52.8"/>
<path d="M41.8,9.4c-8.9,0-16.2,6.9-16.9,15.7l9.1,3.8c0.8-0.5,1.8-0.8,2.7-0.8H37l4-5.9v-0.1c-0.1-3.5,2.6-6.5,6.1-6.6
	s6.5,2.6,6.6,6.1c0,0.2,0,0.3,0,0.5c0,3.6-2.9,6.4-6.5,6.4h-0.1l-5.8,4.2v0.2c0,2.6-2.1,4.8-4.7,4.8l0,0c-2.3,0-4.2-1.6-4.7-3.9
	l-6.5-2.7c2.4,9,11.7,14.3,20.7,11.9c7.4-2,12.5-8.8,12.4-16.4C58.7,17.2,51.2,9.5,41.8,9.4z"/>
<path d="M35.5,35.3l-2.1-0.9c0.4,0.8,1,1.4,1.8,1.7c1.8,0.8,3.8,0,4.6-1.8c0,0,0-0.1,0.1-0.1c0.4-0.9,0.4-1.9,0-2.8
	c-0.3-0.9-1-1.6-1.9-1.9c-0.8-0.4-1.8-0.4-2.6,0l2.1,0.9c1.3,0.6,2,2.1,1.4,3.5c-0.5,1.3-1.9,2-3.2,1.5
	C35.6,35.4,35.6,35.3,35.5,35.3z"/>
<path d="M51.6,22.1c0-2.3-1.9-4.2-4.3-4.2s-4.2,1.9-4.2,4.3c0,2.3,1.9,4.2,4.2,4.2C49.7,26.3,51.6,24.4,51.6,22.1z M44.1,22.1
	c0-1.8,1.5-3.2,3.3-3.2s3.2,1.5,3.2,3.3s-1.5,3.2-3.2,3.2C45.6,25.2,44.2,23.8,44.1,22.1z"/>
<path d="M76.8,21l-1.1,2c-0.9-0.6-2-1-3.1-1c-1.2,0-1.9,0.5-1.9,1.4c0,1.1,1.3,1.3,3.2,2s3.2,1.6,3.2,3.6c0,2.7-2,4.1-5,4.1
	c-1.5,0-3-0.4-4.4-1.1l0.8-2.2c1.1,0.6,2.3,0.9,3.5,0.9c1.5,0,2.3-0.6,2.3-1.4c0-1-1.1-1.2-2.9-1.8c-2-0.7-3.5-1.6-3.5-3.8
	c0-2.4,1.9-3.8,4.7-3.8C74,19.8,75.5,20.2,76.8,21z"/>
<path d="M85.6,22.4v10.5H83V22.4h-3.8V20h10.4v2.4H85.6z"/>
<path d="M95,22.3v2.9h5.2v2.4H95v3.1h6v2.4h-8.6V20h8.6v2.4L95,22.3L95,22.3z"/>
<path d="M107,30.4l-0.8,2.6h-2.8l4.8-12.9h2.7l5,12.9H113l-0.9-2.6H107z M109.4,23.1l-1.7,5.2h3.5L109.4,23.1z"/>
<path d="M129.4,25l-3.4,7.6h-1.5l-3.6-7.6v7.9h-2.5V20h2.5l4.2,9.3l4.1-9.3h2.5v12.9h-2.5V25H129.4z"/>
<path d="M137.1,21.6c0.1,1-0.7,1.8-1.6,1.8h-0.1c-1,0-1.8-0.8-1.8-1.8l0,0c0-1,0.7-1.8,1.7-1.8h0.1
	C136.3,19.8,137.1,20.6,137.1,21.6L137.1,21.6z M133.8,21.6c0,0.8,0.6,1.5,1.4,1.5l0,0c0.8,0,1.4-0.6,1.4-1.4v-0.1
	c0-0.8-0.6-1.4-1.4-1.4S133.8,20.9,133.8,21.6z M135.3,20.7c0.4,0,0.6,0.2,0.6,0.5c0,0.2-0.1,0.4-0.3,0.5l0.4,0.8h-0.3l-0.3-0.7H135
	v0.7h-0.3v-1.7L135.3,20.7L135.3,20.7z M135,21.5h0.3c0.2,0,0.3-0.1,0.3-0.3c0-0.1-0.1-0.3-0.2-0.3c0,0,0,0-0.1,0H135V21.5z"/>
</svg>
